<?xml version="1.0" encoding="UTF-8"?>
<svg id="Layer_2" data-name="Layer 2" xmlns="http://www.w3.org/2000/svg" viewBox="0 0 91.27 89.31">
  <defs>
    <style>
      .cls-1 {
        fill: #1e093d;
      }

      .cls-2 {
        fill: #d8d228;
      }

      .cls-3 {
        fill: #ff8600;
      }

      .cls-4 {
        fill: #e24a7e;
      }

      .cls-5 {
        fill: #00b66f;
      }
    </style>
    <filter id="glow">
      <feGaussianBlur stdDeviation="2" result="coloredBlur"/>
      <feMerge>
        <feMergeNode in="coloredBlur"/>
        <feMergeNode in="SourceGraphic"/>
      </feMerge>
    </filter>
    <filter id="ambientGlow">
      <feGaussianBlur stdDeviation="3" result="coloredBlur"/>
      <feMerge>
        <feMergeNode in="coloredBlur"/>
        <feMergeNode in="SourceGraphic"/>
      </feMerge>
    </filter>
  </defs>
  <g id="Layer_1-2" data-name="Layer 1" filter="url(#ambientGlow)">
    <g>
      <g>
        <path class="cls-5" d="M47.88,47.22c-10.15-15.03-7.92-34.78,4.35-47.22,2.56,11.77,7.74,44.73,6.78,49.68-.73,3.75-4.54,4.96-4.54,4.96-2.47-2.11-4.69-4.6-6.59-7.42Z"/>
        <path class="cls-2" d="M45.27,50.91c-15.77-8.97-22.54-27.65-17.06-44.24,7.52,9.41,26.79,36.64,28.13,41.51,1.01,3.69-1.86,6.46-1.86,6.46-3.15-.8-6.25-2.04-9.2-3.72Z"/>
        <path class="cls-3" d="M44.54,54.67c-17.98-2.35-31.31-17.1-32.5-34.53,10.52,5.88,38.64,23.82,41.71,27.82,2.33,3.03.71,6.68.71,6.68-3.22.45-6.55.47-9.93.02Z"/>
        <path class="cls-4" d="M45.28,58.38c-17.56,4.56-35.44-4.12-43.07-19.84,11.95,1.51,44.75,7.61,49.1,10.16,3.3,1.94,3.17,5.93,3.17,5.93-2.82,1.62-5.9,2.89-9.2,3.74Z"/>
        <path class="cls-1" d="M47.37,61.58c-14.54,10.85-34.37,9.56-47.37-2.11,11.64-3.12,50.23-9.12,50.23-9.12l4.24,4.3c-2,2.56-4.38,4.9-7.1,6.94Z"/>
      </g>
      <path class="cls-1" d="M64.96,34.61s-4.69-2.03-8.55.98c-5.09,3.98-1.32,18.46-35.18,53.72,35.63-12.67,43.39-17.7,43.05-35.79-.09-4.72-1.45-7.59,1.44-10.28,1.66-1.55,3.63-2.35,5.71-2.45,5.63-.27,19.84,2.1,19.84,2.1-19.83-6.06-26.31-8.28-26.31-8.28Z"/>
    </g>
  </g>
</svg>