<svg xmlns="http://www.w3.org/2000/svg" width="141" height="37" viewBox="0 0 141 37" fill="none"><g clip-path="url(#clip0_3037_5414)"><path d="M19.4486 19.1781C15.3243 13.0689 16.2265 5.05229 21.2143 0C22.2583 4.78163 24.3591 18.1599 23.9725 20.1705C23.676 21.6913 22.1294 22.1811 22.1294 22.1811C21.1241 21.3175 20.2219 20.3122 19.4486 19.1652V19.1781Z" fill="#00B66F"></path><path d="M18.379 20.6731C11.9734 17.0256 9.22816 9.44722 11.445 2.70654C14.4995 6.53442 22.3229 17.5927 22.8642 19.5647C23.2766 21.0597 22.1038 22.181 22.1038 22.181C20.8278 21.8588 19.5647 21.3562 18.3661 20.6731H18.379Z" fill="#D8D228"></path><path d="M18.0955 22.2069C10.7877 21.2531 5.37458 15.26 4.89771 8.1842C9.16379 10.5686 20.5959 17.8635 21.8332 19.4874C22.774 20.7247 22.1167 22.2069 22.1167 22.2069C20.815 22.3873 19.4488 22.4002 18.0826 22.2069H18.0955Z" fill="#FF8600"></path><path d="M18.3918 23.7148C11.2644 25.5708 3.99534 22.0393 0.9021 15.6595C5.76106 16.2653 19.0749 18.7528 20.8406 19.7839C22.181 20.5701 22.1294 22.194 22.1294 22.194C20.9824 22.8513 19.7322 23.3669 18.3918 23.7148Z" fill="#FF5B93"></path><path d="M19.2425 25.0165C13.3396 29.4244 5.28428 28.8959 0 24.153C4.73007 22.8899 20.4025 20.454 20.4025 20.454L22.1295 22.1939C21.3175 23.2379 20.3509 24.1788 19.2425 25.0165Z" fill="#1E093D"></path><path d="M26.3826 14.0613C26.3826 14.0613 24.4752 13.2365 22.9156 14.4609C20.8535 16.0719 22.3743 21.962 8.62231 36.2811C23.0961 31.1386 26.2409 29.0893 26.112 21.7429C26.0733 19.8225 25.5191 18.6625 26.692 17.567C27.3622 16.9354 28.1613 16.6132 29.0119 16.5746C31.2932 16.4586 37.0672 17.4252 37.0672 17.4252C29.0119 14.9635 26.3826 14.0613 26.3826 14.0613Z" fill="#1E093D"></path><path d="M65.4089 22.3745H63.4498V26.0477H61.0784V13.2623H66.6977C69.4172 13.2623 71.3376 15.2858 71.3376 17.812C71.3376 19.8226 70.1132 21.5238 68.2444 22.1425L71.8918 26.0477H68.747L65.3831 22.3745H65.4089ZM66.4013 20.3252C67.9737 20.3252 68.979 19.2168 68.979 17.7991C68.979 16.3813 67.9737 15.2987 66.4013 15.2987H63.4627V20.3252H66.4013Z" fill="#1E093D"></path><path d="M80.5015 13.0045C84.5742 13.0045 87.2937 15.9431 87.2937 19.655C87.2937 23.3669 84.5742 26.3054 80.5015 26.3054C76.4287 26.3054 73.7092 23.3797 73.7092 19.655C73.7092 15.9302 76.4545 13.0045 80.5015 13.0045ZM76.0807 19.6421C76.0807 22.0909 77.7433 24.2433 80.5015 24.2433C83.2596 24.2433 84.9222 22.0909 84.9222 19.6421C84.9222 17.1933 83.2725 15.0409 80.5015 15.0409C77.7304 15.0409 76.0807 17.1804 76.0807 19.6421Z" fill="#1E093D"></path><path d="M95.2974 26.0348H93.4157L88.3247 13.2494H90.7477L94.3436 22.7869L97.9395 13.2494H100.363L95.2845 26.0348H95.2974Z" fill="#1E093D"></path><path d="M113.019 26.0348H110.48L109.616 23.8051H103.701L102.837 26.0348H100.298L105.763 13.2494H107.554L113.019 26.0348ZM106.652 16.0462L104.422 21.8589H108.882L106.652 16.0462Z" fill="#1E093D"></path><path d="M119.786 22.3745H117.827V26.0477H115.455V13.2623H121.087C123.807 13.2623 125.727 15.2858 125.727 17.812C125.727 19.8226 124.503 21.5238 122.634 22.1425L126.281 26.0477H123.137L119.773 22.3745H119.786ZM120.765 20.3252C122.338 20.3252 123.343 19.2168 123.343 17.7991C123.343 16.3813 122.338 15.2987 120.765 15.2987H117.827V20.3252H120.765Z" fill="#1E093D"></path><path d="M141 26.0348H138.461L137.597 23.8051H131.682L130.818 26.0348H128.279L133.744 13.2494H135.535L141 26.0348ZM134.646 16.0462L132.416 21.8589H136.876L134.646 16.0462Z" fill="#1E093D"></path><path d="M56.7995 18.4305V26.0476H54.7373V21.7171L54.5955 21.846C54.1831 22.2326 53.7965 22.6579 53.4227 23.0575C52.2756 24.2819 51.1801 25.4418 49.4659 25.9445C47.0171 26.6662 44.5296 25.996 42.7897 24.153C41.0626 22.3099 40.5342 19.7709 41.3977 17.3608C42.1195 15.3244 43.7563 13.8422 45.8572 13.3009C46.4242 13.1591 46.9913 13.0818 47.5584 13.0818C49.1566 13.0818 50.729 13.6618 51.9534 14.7315C52.0694 14.8217 52.5076 15.2728 52.6365 15.4146C52.3658 15.6337 51.3219 16.4972 50.9868 16.7937C50.0588 15.7239 48.7313 15.1439 47.3393 15.2213C45.986 15.2728 44.7616 15.9559 43.9883 17.0772C42.9057 18.6238 42.8928 20.5571 43.9368 22.1037C44.9936 23.6761 46.8109 24.385 48.6668 23.9597C49.9815 23.6503 50.9352 22.6837 51.8632 21.7428C52.1983 21.3949 52.5463 21.0469 52.9072 20.7504L53.0618 20.6087H49.0922V18.4434H56.7995V18.4305Z" fill="#1E093D"></path></g><defs><clipPath id="clip0_3037_5414"><rect width="141" height="36.2682" fill="white"></rect></clipPath></defs></svg>